# xmcd
#
# Track frame offsets:
#   150
#   18382
#   34907
#   46722
#   61387
#   80085
#   98432
#   112845
#   127700
#   143982
#   164910
#
# Disc length: 2367 seconds
#
# Revision: 0
# Processed by: cddbd v1.5.2PL0 Copyright (c) Steve Scherf et al.
# Submitted via: uFREEDB ActiveX Control 1.5
#
DISCID=88093d0b
DTITLE=Angela Rô Rô - Os Grandes da MPB
DYEAR=1998
DGENRE=Classical
TTITLE0=Fogueira
TTITLE1=Demais
TTITLE2=Camisa de Força
TTITLE3=Amor Meu Grande Amor
TTITLE4=Mônica
TTITLE5=Nenhum Lugar
TTITLE6=Opus 2
TTITLE7=Meu Mal é a Birita
TTITLE8=Tão Beata Tão á Toa
TTITLE9=Simples Carinho
TTITLE10=Fica Comigo esta Noite
EXTD=
EXTT0=
EXTT1=
EXTT2=
EXTT3=
EXTT4=
EXTT5=
EXTT6=
EXTT7=
EXTT8=
EXTT9=
EXTT10=
PLAYORDER=
